<?xml version="1.0" encoding="UTF-8" standalone="no"?>
<!-- Created with Inkscape (http://www.inkscape.org/) -->

<svg
   xmlns:dc="http://purl.org/dc/elements/1.1/"
   xmlns:cc="http://creativecommons.org/ns#"
   xmlns:rdf="http://www.w3.org/1999/02/22-rdf-syntax-ns#"
   xmlns:svg="http://www.w3.org/2000/svg"
   xmlns="http://www.w3.org/2000/svg"
   xmlns:sodipodi="http://sodipodi.sourceforge.net/DTD/sodipodi-0.dtd"
   xmlns:inkscape="http://www.inkscape.org/namespaces/inkscape"
   width="48"
   height="48"
   viewBox="0 0 12.7 12.7"
   version="1.1"
   id="svg8"
   inkscape:version="0.92.3 (2405546, 2018-03-11)"
   sodipodi:docname="drawing.svg">
  <defs
     id="defs2">















	

		
		
		
	</defs>
  <sodipodi:namedview
     id="base"
     pagecolor="#ffffff"
     bordercolor="#666666"
     borderopacity="1.0"
     inkscape:pageopacity="0.0"
     inkscape:pageshadow="2"
     inkscape:zoom="9.1546875"
     inkscape:cx="17.749227"
     inkscape:cy="30.609216"
     inkscape:document-units="mm"
     inkscape:current-layer="layer1"
     showgrid="false"
     units="px"
     inkscape:window-width="1920"
     inkscape:window-height="978"
     inkscape:window-x="0"
     inkscape:window-y="27"
     inkscape:window-maximized="1" />
  <metadata
     id="metadata5">
    <rdf:RDF>
      <cc:Work
         rdf:about="">
        <dc:format>image/svg+xml</dc:format>
        <dc:type
           rdf:resource="http://purl.org/dc/dcmitype/StillImage" />
        <dc:title></dc:title>
      </cc:Work>
    </rdf:RDF>
  </metadata>
  <g
     inkscape:label="Layer 1"
     inkscape:groupmode="layer"
     id="layer1"
     transform="translate(0,-284.3)">
    <g
       id="g109">
      <path
         id="path10"
         d="m 7.9898176,290.23484 c 0.3117122,-0.0328 0.5403759,-0.23424 0.5107631,-0.45011 -0.014796,-0.10764 -0.091121,-0.19852 -0.2025579,-0.25841 0.3014816,-0.2583 0.4491303,-0.38173 0.4491303,-0.38173 H 7.7729825 c -0.3577396,0 -0.6477869,0.25405 -0.6477869,0.5674 v 0.83171 c 0.1593735,-0.13947 0.3064827,-0.26796 0.4418672,-0.38574 0.1129311,0.0628 0.2632776,0.0936 0.4227548,0.0769 z"
         inkscape:connector-curvature="0"
         style="fill:#008000;stroke-width:0.01942161" />
      <path
         id="path12"
         d="m 4.1994257,289.78475 c -0.029613,0.21574 0.1990716,0.41721 0.5107838,0.45011 0.1596225,0.0167 0.309969,-0.0139 0.4227549,-0.0769 0.1353844,0.11777 0.2824937,0.24628 0.4418464,0.38575 V 289.712 c 0,-0.31335 -0.2900473,-0.56741 -0.6477869,-0.56741 H 3.9528533 c 0,0 0.147794,0.12331 0.4491303,0.38173 -0.1114369,0.0599 -0.1877412,0.15076 -0.2025579,0.2584 z"
         inkscape:connector-curvature="0"
         style="fill:#008000;stroke-width:0.01942161" />
      <path
         id="path14"
         d="m 0.49519501,287.64255 c -0.38170787,0.74827 -0.54402814,1.62724 -0.48249917,2.61258 l 0.02205912,0.35448 0.5446922,-0.11446 c -4.1504e-4,0.29283 0.0222044,0.72018 0.12100351,1.20685 0.10699608,0.52698 0.28185041,1.01598 0.51952033,1.45312 0.300942,0.55337 0.7036507,1.02482 1.19692,1.401 l 0.3235614,0.24675 0.185749,-0.31253 c 0.1593528,0.20136 0.3753786,0.45495 0.6430763,0.72645 0.5705282,0.5786 1.4950398,1.35044 2.6595248,1.74242 L 6.3499306,297 6.4712039,296.9592 c 1.1643605,-0.39189 2.0888721,-1.16382 2.6594003,-1.74242 0.2676977,-0.2715 0.4837235,-0.52509 0.6430762,-0.72645 l 0.1857283,0.31253 0.3235613,-0.24675 c 0.49329,-0.37618 0.895978,-0.8475 1.19692,-1.401 0.237691,-0.43726 0.412545,-0.92614 0.519541,-1.45312 0.09878,-0.48665 0.121398,-0.91413 0.120983,-1.20685 l 0.544692,0.11446 0.0222,-0.35448 c 0.06151,-0.98532 -0.100792,-1.86431 -0.48252,-2.61269 -0.309139,-0.60608 -0.760698,-1.12597 -1.342017,-1.54531 -0.412524,-0.29755 -0.830153,-0.50091 -1.1799448,-0.63744 l 0.9596238,-0.37158 -0.539857,-0.29603 C 9.5070618,284.46564 8.7695028,284.3 7.9102762,284.3 c -0.7262701,0 -1.3304369,0.12026 -1.5602004,0.17306 C 6.1201878,284.42026 5.5160211,284.3 4.7898755,284.3 c -0.8590814,0 -1.5967857,0.16564 -2.1923612,0.49208 l -0.539857,0.29603 0.9596444,0.37158 c -0.3496672,0.13653 -0.7674416,0.33989 -1.1798206,0.63744 -0.5815681,0.41945 -1.03312637,0.93934 -1.34228609,1.54542 z m 0.18076858,2.22354 c -9.3382e-4,-0.42853 0.0475215,-0.83065 0.14401722,-1.20379 0.41076029,-0.0124 0.75775049,0.0749 1.03393569,0.26089 0.2099663,0.14135 0.3177717,0.30134 0.351016,0.3571 -0.1014968,0.42407 -0.105917,0.73941 -0.1060622,0.76935 l -6.848e-4,0.1153 0.3884314,0.37382 c -0.069186,0.0183 -0.141195,0.0404 -0.2152165,0.0674 -0.2907114,0.10587 -0.6480567,0.30074 -0.9621968,0.6576 -0.088963,-0.64285 -0.039304,-1.11312 -0.038764,-1.1183 l 0.046837,-0.41416 z m 3.17070291,-2.03726 c 0.5888312,-0.41994 1.4090445,-0.54218 2.4375847,-0.36334 l 0.065804,0.0114 0.065825,-0.0114 c 1.0285402,-0.17884 1.8486082,-0.0566 2.4375847,0.36334 0.8782145,0.62624 1.0372975,1.75774 1.0658311,2.11353 l -1.156288,1.11289 c -0.24402,-0.34069 -0.4923355,-0.56222 -0.5131911,-0.5806 l -0.4791373,0.41757 c 0.00216,0.002 0.2173746,0.19428 0.4231491,0.48218 0.185749,0.25958 0.4023144,0.65216 0.379695,1.04769 -0.016415,0.28753 -0.1541234,0.54052 -0.4196629,0.76947 l -0.1611167,-0.052 v 0 l -1.5301725,-0.49385 c 0.028015,-0.19416 0.090997,-0.43195 0.2328555,-0.51965 0.2553297,-0.15787 0.6908676,-0.4078 0,-0.44728 0,0 -0.1651425,0.079 -0.345496,0.079 -0.1802291,0 -0.3453716,-0.079 -0.3453716,-0.079 -0.6908676,0.0395 -0.2553296,0.28943 0,0.44728 0.1418591,0.0877 0.2048406,0.32549 0.2328348,0.51965 l -1.5300273,0.49374 v 0 l -0.1611167,0.052 c -0.2648754,-0.22835 -0.4025634,-0.48075 -0.4195175,-0.76736 -0.045612,-0.77043 0.7946264,-1.52469 0.8031138,-1.53223 l -0.2399733,-0.20843 0.239579,0.20878 -0.4789921,-0.41758 c -0.020855,0.0184 -0.2691918,0.23992 -0.513191,0.5806 l -1.1562673,-1.11289 c 0.028368,-0.35635 0.1877204,-1.48741 1.0656646,-2.11351 z m 3.5633262,6.13041 c -0.00822,0.004 -0.021665,0.009 -0.053975,0.009 v 0 c -0.077383,0 -0.1940912,-0.029 -0.3176472,-0.0597 -0.1885505,-0.0468 -0.4232736,-0.10502 -0.6882944,-0.10502 -0.2650207,0 -0.4997439,0.0582 -0.6882943,0.10502 -0.123556,0.0307 -0.2402432,0.0597 -0.3176265,0.0597 -0.032165,0 -0.045778,-0.005 -0.053851,-0.009 -0.035403,-0.0441 -0.04252,-0.20371 -0.012389,-0.37312 l 1.0721604,-0.34601 1.0720359,0.34601 c 0.028409,0.16103 0.025836,0.32607 -0.012119,0.37312 z m 3.4552513,-1.05004 c -0.192743,0.3525 -0.432031,0.66536 -0.713861,0.93427 l -0.3351407,-0.56326 -0.3063375,0.47521 c -0.00322,0.005 -0.3286664,0.50646 -0.9004188,1.08424 -0.4977103,0.50292 -1.2862771,1.16571 -2.2593894,1.5241 -0.9731123,-0.35839 -1.7618037,-1.02118 -2.2593894,-1.5241 -0.5717525,-0.57778 -0.8971816,-1.0793 -0.9002943,-1.08413 l -0.3060678,-0.47652 -0.3354107,0.56435 c -0.2819749,-0.2688 -0.5211389,-0.5818 -0.7138813,-0.93428 -0.1288061,-0.23543 -0.2370058,-0.48901 -0.3241009,-0.75779 0.4255771,-0.94301 1.1982688,-1.08401 1.5071588,-1.10122 l 0.5946209,0.57235 c -0.10876,0.255 -0.1778011,0.53688 -0.1611166,0.829 0.028803,0.50352 0.3001327,0.94348 0.8063303,1.30776 l 0.1496617,0.10763 0.1751034,-0.0565 c 0.00564,0.23519 0.077923,0.48879 0.321673,0.63484 0.1275818,0.0765 0.2755004,0.11519 0.4398543,0.11519 0.1713266,0 0.3394366,-0.0417 0.5019021,-0.082 0.1636691,-0.0407 0.3329827,-0.0827 0.5040395,-0.0827 0.1710775,0 0.3402458,0.042 0.5040602,0.0827 0.1625901,0.0403 0.3307001,0.082 0.5019021,0.082 v 0 c 0.1641879,0 0.3122517,-0.0388 0.4398336,-0.11519 0.2437501,-0.14605 0.315904,-0.39963 0.321673,-0.63484 l 0.1751033,0.0565 0.1496617,-0.10763 c 0.5062185,-0.36428 0.7775477,-0.80424 0.8063304,-1.30776 0.016705,-0.29212 -0.052336,-0.574 -0.1611166,-0.829 l 0.5938116,-0.57151 c 0.1132008,0.007 0.2908774,0.0298 0.4880401,0.10173 0.453322,0.16517 0.79612,0.50102 1.020073,0.99854 -0.08728,0.26889 -0.195502,0.52247 -0.324308,0.75802 z m 0.51896,-3.17727 0.04563,0.41319 c 6.64e-4,0.006 0.05034,0.47582 -0.03862,1.11867 -0.31414,-0.35697 -0.67161,-0.55173 -0.962197,-0.6576 -0.07402,-0.027 -0.14603,-0.0492 -0.215216,-0.0674 l 0.388452,-0.37382 -6.85e-4,-0.1153 c -1.25e-4,-0.0299 -0.0046,-0.34554 -0.106187,-0.77005 0.0619,-0.10717 0.421531,-0.64333 1.385616,-0.61669 0.09637,0.37301 0.144411,0.77502 0.143602,1.20332 z m 0.203658,-1.84794 c 0.0315,0.0617 0.06109,0.12461 0.08923,0.18839 -0.60068,0.0254 -1.016421,0.22128 -1.278474,0.40601 -0.05059,0.0356 -0.09691,0.0719 -0.139452,0.10799 -0.194071,-0.4283 -0.4983952,-0.87263 -0.9755196,-1.21404 -0.014277,-0.0102 -0.028949,-0.0202 -0.043475,-0.0301 0.072548,-0.24355 0.3032248,-0.67163 1.0367576,-0.89549 0.05196,0.0341 0.10405,0.0699 0.156012,0.10741 0.500263,0.36062 0.888839,0.80802 1.154919,1.3298 z m -7.9887017,-2.84611 c 0.3534439,-0.0969 0.7515665,-0.14583 1.190736,-0.14583 0.804857,0 1.4556114,0.16965 1.4616709,0.1713 l 0.098529,0.0261 0.098135,-0.0259 c 0.00645,-0.002 0.6572082,-0.17141 1.4620652,-0.17141 0.4391695,0 0.837292,0.0489 1.190736,0.14583 l -1.4814682,0.57377 1.0716417,0.17553 c 0.00577,9.5e-4 0.3895105,0.0663 0.8948989,0.28696 -0.4293539,0.21726 -0.677545,0.49395 -0.8191342,0.72219 -0.050074,0.0808 -0.089502,0.15916 -0.1206093,0.23296 -0.6389052,-0.24864 -1.4078409,-0.30121 -2.2964105,-0.15538 -0.8885696,-0.14583 -1.6575053,-0.0934 -2.2964105,0.15538 -0.031107,-0.0737 -0.070535,-0.1522 -0.1206092,-0.23296 -0.141444,-0.22799 -0.3893653,-0.50445 -0.8180552,-0.72161 0.5036453,-0.21927 0.8885697,-0.28659 0.8938199,-0.28754 l 1.0716208,-0.17553 z m -1.3547994,1.5327 c 0.05962,-0.0436 0.1193848,-0.0848 0.1790046,-0.12389 0.4161558,0.12602 0.7187165,0.33022 0.9009585,0.6089 0.069166,0.10564 0.1099635,0.20654 0.1340563,0.28754 -0.014007,0.01 -0.028139,0.0192 -0.042002,0.0291 -0.4771245,0.34141 -0.7813038,0.78574 -0.9755195,1.21404 -0.042541,-0.0361 -0.088838,-0.0723 -0.1394311,-0.10799 -0.2619287,-0.18462 -0.677545,-0.38055 -1.2780801,-0.4059 0.025711,-0.0585 0.052481,-0.11624 0.081015,-0.17296 0.262323,-0.52038 0.6458986,-0.96741 1.139998,-1.32886 z"
         inkscape:connector-curvature="0"
         style="fill:#008000;stroke-width:0.01942161" />
    </g>
  </g>
</svg>
